<svg width="76" height="78" viewBox="0 0 76 78" fill="none" xmlns="http://www.w3.org/2000/svg">
<g clip-path="url(#clip0_7_3)">
<path d="M59.0773 3.02249L20.4693 42.6465C18.9947 44.1517 17.8257 45.9422 17.0299 47.9142C16.2342 49.8863 15.8274 52.0008 15.8333 54.1352V58.5C15.8333 59.3619 16.1669 60.1886 16.7608 60.7981C17.3547 61.4076 18.1601 61.75 19 61.75H23.2528C25.3326 61.756 27.3928 61.3386 29.3143 60.5219C31.2358 59.7052 32.9804 58.5054 34.447 56.992L73.055 17.368C74.9056 15.464 75.9448 12.8845 75.9448 10.1952C75.9448 7.50595 74.9056 4.92644 73.055 3.02249C71.173 1.17615 68.6697 0.145752 66.0662 0.145752C63.4626 0.145752 60.9593 1.17615 59.0773 3.02249V3.02249ZM68.5773 12.7725L29.9693 52.3965C28.1837 54.2179 25.7703 55.2432 23.2528 55.25H22.1666V54.1352C22.1732 51.5515 23.1723 49.0746 24.947 47.242L63.555 7.61799C64.2313 6.95485 65.1308 6.58479 66.0662 6.58479C67.0016 6.58479 67.9009 6.95485 68.5773 7.61799C69.2421 8.30216 69.6155 9.22899 69.6155 10.1952C69.6155 11.1615 69.2421 12.0883 68.5773 12.7725V12.7725Z" fill="black"/>
<path d="M72.8333 29.1818C71.9935 29.1818 71.188 29.5242 70.5942 30.1337C70.0003 30.7431 69.6667 31.5698 69.6667 32.4318V48.75H57C54.4804 48.75 52.0641 49.7772 50.2825 51.6057C48.5009 53.4342 47.5 55.9141 47.5 58.5V71.5H15.8333C13.3138 71.5 10.8974 70.4728 9.11582 68.6443C7.33422 66.8158 6.33333 64.3359 6.33333 61.75V16.25C6.33333 13.6641 7.33422 11.1842 9.11582 9.35571C10.8974 7.52723 13.3138 6.5 15.8333 6.5H44.4663C45.3062 6.5 46.1116 6.15759 46.7055 5.5481C47.2994 4.9386 47.633 4.11195 47.633 3.25C47.633 2.38805 47.2994 1.5614 46.7055 0.951903C46.1116 0.34241 45.3062 0 44.4663 0L15.8333 0C11.6356 0.00516054 7.61127 1.71887 4.64303 4.76522C1.67479 7.81156 0.00502822 11.9418 0 16.25L0 61.75C0.00502822 66.0582 1.67479 70.1884 4.64303 73.2348C7.61127 76.2811 11.6356 77.9948 15.8333 78H51.7528C53.8331 78.0061 55.8938 77.5887 57.8158 76.772C59.7378 75.9553 61.483 74.7555 62.9502 73.242L71.3608 64.6035C72.8357 63.0983 74.0051 61.3079 74.8014 59.3359C75.5977 57.3639 76.0051 55.2494 76 53.1148V32.4318C76 31.5698 75.6664 30.7431 75.0725 30.1337C74.4786 29.5242 73.6732 29.1818 72.8333 29.1818ZM58.4725 68.6465C57.1996 69.9498 55.5898 70.852 53.8333 71.2465V58.5C53.8333 57.6381 54.167 56.8114 54.7608 56.2019C55.3547 55.5924 56.1602 55.25 57 55.25H69.4292C69.0374 57.0489 68.1594 58.698 66.8958 60.008L58.4725 68.6465Z" fill="black"/>
</g>
<defs>
<clipPath id="clip0_7_3">
<rect width="76" height="78" fill="white"/>
</clipPath>
</defs>
</svg>
