<svg width="88" height="78" viewBox="0 0 88 78" fill="none" xmlns="http://www.w3.org/2000/svg">
<g clip-path="url(#clip0_9_47)">
<path d="M77 13H65.6333C64.7823 9.33209 62.5307 6.03637 59.2579 3.66833C55.9851 1.30029 51.8914 0.0047272 47.6666 0L40.3333 0C36.1086 0.0047272 32.0148 1.30029 28.7421 3.66833C25.4693 6.03637 23.2177 9.33209 22.3666 13H11C10.0275 13 9.09489 13.3424 8.40725 13.9519C7.71962 14.5614 7.33331 15.388 7.33331 16.25C7.33331 17.112 7.71962 17.9386 8.40725 18.5481C9.09489 19.1576 10.0275 19.5 11 19.5H14.6666V61.75C14.6725 66.0582 16.6059 70.1884 20.0428 73.2348C23.4797 76.2811 28.1395 77.9948 33 78H55C59.8605 77.9948 64.5203 76.2811 67.9572 73.2348C71.3941 70.1884 73.3275 66.0582 73.3333 61.75V19.5H77C77.9724 19.5 78.9051 19.1576 79.5927 18.5481C80.2803 17.9386 80.6666 17.112 80.6666 16.25C80.6666 15.388 80.2803 14.5614 79.5927 13.9519C78.9051 13.3424 77.9724 13 77 13V13ZM40.3333 6.5H47.6666C49.941 6.50246 52.1588 7.12847 54.0159 8.29219C55.873 9.45591 57.2785 11.1003 58.0396 13H29.9603C30.7214 11.1003 32.1269 9.45591 33.9841 8.29219C35.8412 7.12847 38.059 6.50246 40.3333 6.5V6.5ZM66 61.75C66 64.3359 64.8411 66.8158 62.7782 68.6443C60.7153 70.4728 57.9174 71.5 55 71.5H33C30.0826 71.5 27.2847 70.4728 25.2218 68.6443C23.1589 66.8158 22 64.3359 22 61.75V19.5H66V61.75Z" fill="black"/>
<path d="M36.6667 58.5C37.6391 58.5 38.5718 58.1576 39.2594 57.5481C39.947 56.9386 40.3333 56.112 40.3333 55.25V35.75C40.3333 34.888 39.947 34.0614 39.2594 33.4519C38.5718 32.8424 37.6391 32.5 36.6667 32.5C35.6942 32.5 34.7616 32.8424 34.0739 33.4519C33.3863 34.0614 33 34.888 33 35.75V55.25C33 56.112 33.3863 56.9386 34.0739 57.5481C34.7616 58.1576 35.6942 58.5 36.6667 58.5Z" fill="black"/>
<path d="M51.3334 58.5C52.3058 58.5 53.2384 58.1576 53.9261 57.5481C54.6137 56.9386 55 56.112 55 55.25V35.75C55 34.888 54.6137 34.0614 53.9261 33.4519C53.2384 32.8424 52.3058 32.5 51.3334 32.5C50.3609 32.5 49.4283 32.8424 48.7406 33.4519C48.053 34.0614 47.6667 34.888 47.6667 35.75V55.25C47.6667 56.112 48.053 56.9386 48.7406 57.5481C49.4283 58.1576 50.3609 58.5 51.3334 58.5Z" fill="black"/>
</g>
<defs>
<clipPath id="clip0_9_47">
<rect width="88" height="78" fill="white"/>
</clipPath>
</defs>
</svg>
